<mxfile host="app.diagrams.net" modified="2023-12-20T06:10:02.525Z" agent="Mozilla/5.0 (Macintosh; Intel Mac OS X 10_15_7) AppleWebKit/537.36 (KHTML, like Gecko) Chrome/119.0.0.0 Safari/537.36" version="22.1.11" etag="96eQzeO_0rczKxQI937j" type="github">
  <diagram name="第 1 页" id="-YI1TArkYlygWWfEs4it">
    <mxGraphModel>
      <root>
        <mxCell id="0" />
        <mxCell id="1" parent="0" />
      </root>
    </mxGraphModel>
  </diagram>
</mxfile>
